<svg id="Camada_1" data-name="Camada 1" xmlns="http://www.w3.org/2000/svg" viewBox="0 0 1961.36 1353.58"><defs><style>.cls-1{fill:#fff;}</style></defs><path class="cls-1" d="M1133.7,352.65a188.27,188.27,0,0,0,55.16-133.38c0-104.3-84.56-188.86-188.86-188.86a188.63,188.63,0,0,0-157.7,85.06c-9,9-760.8,935.64-767.82,946.28a188.28,188.28,0,0,0-55.16,133.38c0,104.3,84.56,188.86,188.86,188.86a188.6,188.6,0,0,0,157.7-85.06C374.85,1289.94,1126.68,363.29,1133.7,352.65Z" transform="translate(-19.32 -30.41)"/><path class="cls-1" d="M1568.74,792.34A188.28,188.28,0,0,0,1624,658.81c0-104.31-84.56-188.87-188.87-188.87a188.61,188.61,0,0,0-157.74,85.14c-9,9-403.93,495.79-411,506.52a188.29,188.29,0,0,0-55.29,133.53c0,104.3,84.55,188.86,188.86,188.86a188.62,188.62,0,0,0,157.74-85.13C1166.79,1289.81,1561.67,803.06,1568.74,792.34Z" transform="translate(-19.32 -30.41)"/><path class="cls-1" d="M1980.68,219.27c0,104.31-84.56,188.87-188.86,188.87S1603,323.58,1603,219.27s84.56-188.86,188.87-188.86S1980.68,115,1980.68,219.27Z" transform="translate(-19.32 -30.41)"/><path class="cls-1" d="M397.05,219.27c0,104.31-84.56,188.87-188.87,188.87S19.32,323.58,19.32,219.27,103.88,30.41,208.18,30.41,397.05,115,397.05,219.27Z" transform="translate(-19.32 -30.41)"/></svg>